# xmcd
#
# Track frame offsets: 
#        150
#        15761
#        34477
#        61251
#        90366
#        106462
#        135329
#
# Disc length: 2125 seconds
#
# Revision: 0
# Processed by: cddbd v1.5.2PL0 Copyright (c) Steve Scherf et al.
# Submitted via: ExactAudioCopy v0.99pb3
#
DISCID=49084b07
DTITLE=Rodgers Paul - Manchester 2011 (1)^
DYEAR=2011
DGENRE=Rock
TTITLE0=Walk in my Shadow
TTITLE1=Wishing Well
TTITLE2=Mr. Big
TTITLE3=Feel like makin Love
TTITLE4=Take Love
TTITLE5=Be my Friend
TTITLE6=Fire and Water
EXTD=
EXTT0=
EXTT1=
EXTT2=
EXTT3=
EXTT4=
EXTT5=
EXTT6=
PLAYORDER=
